<svg width="248" height="248" viewBox="0 0 248 248" fill="none" xmlns="http://www.w3.org/2000/svg">
<circle cx="124" cy="124" r="122" fill="#FF6EFD" stroke="white" stroke-width="4"/>
<path d="M139.644 108.956C139.644 127.962 124.014 143.368 104.733 143.368C85.4524 143.368 69.8223 127.962 69.8223 108.956C69.8223 94.281 79.1416 81.7513 92.2649 76.8037" stroke="white" stroke-width="4.47324"/>
<path d="M125.809 150.735C106.948 171.557 75.0608 173.403 54.5868 154.858C38.7774 140.538 34.396 118.247 41.9037 99.2462" stroke="white" stroke-width="4.47324"/>
<path d="M139.643 104.234C139.643 85.2286 155.273 69.8218 174.554 69.8218C193.835 69.8218 209.465 85.2286 209.465 104.234C209.465 118.909 200.145 131.439 187.022 136.386" stroke="white" stroke-width="4.47324"/>
<path d="M132.355 52.3908C140.753 65.2345 129.331 84.6071 117.775 85.8728C115.625 67.8487 123.83 58.6229 128.202 56.263" stroke="white" stroke-width="4.47324"/>
<path d="M129.668 47.8776L141.758 7.97949M139.34 41.8324L149.617 7.97949" stroke="white" stroke-width="4.47324"/>
<line x1="152.729" y1="129.403" x2="125.798" y2="207.204" stroke="white" stroke-width="4.47324"/>
<line x1="165.696" y1="129.403" x2="138.764" y2="207.204" stroke="white" stroke-width="4.47324"/>
</svg>
