<svg width="61" height="61" viewBox="0 0 61 61" fill="none" xmlns="http://www.w3.org/2000/svg">
<mask id="path-1-inside-1_165_1272" fill="white">
<path fill-rule="evenodd" clip-rule="evenodd" d="M29.0449 28.9653C29.1268 29.7866 29.1189 30.6152 29.0213 31.4351C29.8359 31.358 30.6572 31.3691 31.4698 31.4684C31.4046 30.6324 31.4321 29.7905 31.5523 28.9594C30.7195 29.0539 29.8781 29.0559 29.0449 28.9653ZM18.8788 41.3347C18.4836 44.6542 19.5596 48.1155 22.1068 50.6628C26.517 55.0729 33.6672 55.0729 38.0774 50.6628C40.5073 48.2329 41.5984 44.9711 41.3506 41.7941C44.6808 42.2011 48.1574 41.1265 50.7136 38.5704C55.1238 34.1602 55.1238 27.0099 50.7136 22.5998C48.1823 20.0685 44.7483 18.99 41.4478 19.3645C41.9404 15.9598 40.8768 12.3732 38.2571 9.75356C33.847 5.3434 26.6967 5.3434 22.2865 9.75356C19.7945 12.2456 18.7106 15.6127 19.035 18.8659C15.7509 18.509 12.3403 19.5894 9.82274 22.107C5.41258 26.5172 5.41258 33.6675 9.82274 38.0776C12.3005 40.5554 15.6431 41.641 18.8788 41.3347Z"/>
</mask>
<path fill-rule="evenodd" clip-rule="evenodd" d="M29.0449 28.9653C29.1268 29.7866 29.1189 30.6152 29.0213 31.4351C29.8359 31.358 30.6572 31.3691 31.4698 31.4684C31.4046 30.6324 31.4321 29.7905 31.5523 28.9594C30.7195 29.0539 29.8781 29.0559 29.0449 28.9653ZM18.8788 41.3347C18.4836 44.6542 19.5596 48.1155 22.1068 50.6628C26.517 55.0729 33.6672 55.0729 38.0774 50.6628C40.5073 48.2329 41.5984 44.9711 41.3506 41.7941C44.6808 42.2011 48.1574 41.1265 50.7136 38.5704C55.1238 34.1602 55.1238 27.0099 50.7136 22.5998C48.1823 20.0685 44.7483 18.99 41.4478 19.3645C41.9404 15.9598 40.8768 12.3732 38.2571 9.75356C33.847 5.3434 26.6967 5.3434 22.2865 9.75356C19.7945 12.2456 18.7106 15.6127 19.035 18.8659C15.7509 18.509 12.3403 19.5894 9.82274 22.107C5.41258 26.5172 5.41258 33.6675 9.82274 38.0776C12.3005 40.5554 15.6431 41.641 18.8788 41.3347Z" fill="#FF6EFD"/>
<path d="M29.0449 28.9653L29.477 24.9887L24.5755 24.4562L25.0647 29.3622L29.0449 28.9653ZM29.0213 31.4351L25.0494 30.9622L24.4633 35.8846L29.3984 35.4173L29.0213 31.4351ZM31.4698 31.4684L30.9845 35.4389L35.8378 36.032L35.4577 31.1574L31.4698 31.4684ZM31.5523 28.9594L35.5111 29.5321L36.2535 24.4003L31.1014 24.9849L31.5523 28.9594ZM18.8788 41.3347L22.8508 41.8076L23.4369 36.8852L18.5018 37.3525L18.8788 41.3347ZM22.1068 50.6628L24.9352 47.8343L24.9352 47.8343L22.1068 50.6628ZM38.0774 50.6628L40.9058 53.4912L40.9058 53.4912L38.0774 50.6628ZM41.3506 41.7941L41.8359 37.8237L36.9826 37.2305L37.3627 42.1051L41.3506 41.7941ZM50.7136 38.5704L53.542 41.3988L53.542 41.3988L50.7136 38.5704ZM50.7136 22.5998L47.8852 25.4282L50.7136 22.5998ZM41.4478 19.3645L37.489 18.7918L36.7466 23.9236L41.8988 23.339L41.4478 19.3645ZM38.2571 9.75356L41.0856 6.92514L41.0856 6.92514L38.2571 9.75356ZM22.2865 9.75356L25.115 12.582L22.2865 9.75356ZM19.035 18.8659L18.6029 22.8424L23.5044 23.375L23.0152 18.469L19.035 18.8659ZM9.82274 22.107L12.6512 24.9355L9.82274 22.107ZM9.82274 38.0776L12.6512 35.2492L12.6512 35.2492L9.82274 38.0776ZM25.0647 29.3622C25.1177 29.8943 25.1126 30.4312 25.0494 30.9622L32.9933 31.9081C33.1253 30.7993 33.1359 29.679 33.0252 28.5685L25.0647 29.3622ZM31.955 27.4979C30.8561 27.3636 29.7456 27.3487 28.6443 27.4529L29.3984 35.4173C29.9261 35.3674 30.4583 35.3746 30.9845 35.4389L31.955 27.4979ZM27.5935 28.3867C27.4309 29.5108 27.3937 30.6491 27.4819 31.7794L35.4577 31.1574C35.4154 30.6156 35.4333 30.0701 35.5111 29.5321L27.5935 28.3867ZM28.6128 32.9419C29.7395 33.0644 30.877 33.0617 32.0033 32.9339L31.1014 24.9849C30.5619 25.0461 30.0167 25.0474 29.477 24.9887L28.6128 32.9419ZM14.9069 40.8617C14.3729 45.3464 15.8275 50.0403 19.2784 53.4912L24.9352 47.8343C23.2917 46.1908 22.5943 43.962 22.8508 41.8076L14.9069 40.8617ZM19.2784 53.4912C25.2506 59.4635 34.9336 59.4635 40.9058 53.4912L35.249 47.8343C32.4009 50.6824 27.7833 50.6824 24.9352 47.8343L19.2784 53.4912ZM40.9058 53.4912C44.1971 50.1999 45.6733 45.776 45.3385 41.4831L37.3627 42.1051C37.5235 44.1662 36.8175 46.2658 35.249 47.8344L40.9058 53.4912ZM40.8654 45.7646C45.3644 46.3144 50.079 44.8618 53.542 41.3988L47.8852 35.7419C46.2359 37.3912 43.9972 38.0878 41.8359 37.8237L40.8654 45.7646ZM53.542 41.3988C59.5143 35.4265 59.5143 25.7436 53.542 19.7713L47.8852 25.4282C50.7332 28.2762 50.7332 32.8939 47.8852 35.7419L53.542 41.3988ZM53.542 19.7713C50.1128 16.3421 45.4559 14.8841 40.9969 15.39L41.8988 23.339C44.0407 23.096 46.2518 23.7948 47.8852 25.4282L53.542 19.7713ZM45.4066 19.9372C46.072 15.3377 44.635 10.4746 41.0856 6.92514L35.4287 12.582C37.1186 14.2719 37.8088 16.5818 37.489 18.7918L45.4066 19.9372ZM41.0856 6.92514C35.1133 0.95288 25.4304 0.95288 19.4581 6.92514L25.115 12.582C27.963 9.73393 32.5807 9.73393 35.4287 12.582L41.0856 6.92514ZM19.4581 6.92514C16.0822 10.301 14.6164 14.8674 15.0547 19.2627L23.0152 18.469C22.8047 16.358 23.5067 14.1903 25.115 12.582L19.4581 6.92514ZM12.6512 24.9355C14.2758 23.3108 16.4717 22.6109 18.6029 22.8424L19.467 14.8893C15.0302 14.4072 10.4049 15.868 6.99431 19.2786L12.6512 24.9355ZM12.6512 35.2492C9.8031 32.4011 9.8031 27.7835 12.6512 24.9355L6.99431 19.2786C1.02205 25.2509 1.02206 34.9338 6.99431 40.906L12.6512 35.2492ZM18.5018 37.3525C16.4022 37.5513 14.2503 36.8483 12.6512 35.2492L6.99431 40.906C10.3507 44.2624 14.884 45.7308 19.2559 45.3169L18.5018 37.3525Z" fill="white" mask="url(#path-1-inside-1_165_1272)"/>
</svg>
