<svg width="1920" height="1080" viewBox="0 0 1920 1080" fill="none" xmlns="http://www.w3.org/2000/svg">
<line y1="99.0693" x2="1921" y2="99.0693" stroke="#E2E2E2"/>
<line y1="192.004" x2="1921" y2="192.004" stroke="#E2E2E2"/>
<line y1="284.939" x2="1921" y2="284.939" stroke="#E2E2E2"/>
<line y1="377.875" x2="1921" y2="377.875" stroke="#E2E2E2"/>
<line y1="470.81" x2="1921" y2="470.81" stroke="#E2E2E2"/>
<line y1="563.745" x2="1921" y2="563.745" stroke="#E2E2E2"/>
<line y1="656.68" x2="1921" y2="656.68" stroke="#E2E2E2"/>
<line y1="749.615" x2="1921" y2="749.615" stroke="#E2E2E2"/>
<line y1="842.55" x2="1921" y2="842.55" stroke="#E2E2E2"/>
<line y1="935.486" x2="1921" y2="935.486" stroke="#E2E2E2"/>
<line y1="1028.42" x2="1921" y2="1028.42" stroke="#E2E2E2"/>
<line x1="1410.87" y1="-360" x2="1410.87" y2="1561" stroke="#E2E2E2"/>
<line x1="1317.93" y1="-360" x2="1317.93" y2="1561" stroke="#E2E2E2"/>
<line x1="1225" y1="-360" x2="1225" y2="1561" stroke="#E2E2E2"/>
<line x1="1132.06" y1="-360" x2="1132.06" y2="1561" stroke="#E2E2E2"/>
<line x1="1039.13" y1="-360" x2="1039.13" y2="1561" stroke="#E2E2E2"/>
<line x1="946.191" y1="-360" x2="946.191" y2="1561" stroke="#E2E2E2"/>
<line x1="853.257" y1="-360" x2="853.257" y2="1561" stroke="#E2E2E2"/>
<line x1="760.321" y1="-360" x2="760.321" y2="1561" stroke="#E2E2E2"/>
<line x1="667.386" y1="-360" x2="667.386" y2="1561" stroke="#E2E2E2"/>
<line x1="574.451" y1="-360" x2="574.451" y2="1561" stroke="#E2E2E2"/>
<line x1="481.516" y1="-360" x2="481.516" y2="1561" stroke="#E2E2E2"/>
</svg>
