<svg width="290" height="333" viewBox="0 0 290 333" fill="none" xmlns="http://www.w3.org/2000/svg">
<mask id="path-1-inside-1_253_7" fill="white">
<path fill-rule="evenodd" clip-rule="evenodd" d="M199.321 108.323V108.323C195.741 111.903 197.534 122.815 202.066 125.072C206.989 127.523 211.605 130.8 215.707 134.903C236.088 155.283 236.088 188.326 215.707 208.706C201.344 223.069 180.691 227.31 162.614 221.427C161.871 221.186 161.155 222.351 161.707 222.903V222.903C182.088 243.283 182.088 276.326 161.707 296.706C141.327 317.086 108.284 317.086 87.904 296.706C67.5238 276.326 67.5238 243.283 87.904 222.903C102.268 208.539 122.921 204.299 140.998 210.181C141.74 210.423 142.456 209.258 141.904 208.706V208.706C121.524 188.326 121.524 155.283 141.904 134.903V134.903C145.484 131.323 143.691 120.41 139.159 118.153C134.236 115.702 129.62 112.426 125.517 108.323C105.137 87.9425 105.137 54.8996 125.517 34.5193C145.898 14.1391 178.94 14.1391 199.321 34.5193C219.701 54.8996 219.701 87.9425 199.321 108.323Z"/>
</mask>
<path fill-rule="evenodd" clip-rule="evenodd" d="M199.321 108.323V108.323C195.741 111.903 197.534 122.815 202.066 125.072C206.989 127.523 211.605 130.8 215.707 134.903C236.088 155.283 236.088 188.326 215.707 208.706C201.344 223.069 180.691 227.31 162.614 221.427C161.871 221.186 161.155 222.351 161.707 222.903V222.903C182.088 243.283 182.088 276.326 161.707 296.706C141.327 317.086 108.284 317.086 87.904 296.706C67.5238 276.326 67.5238 243.283 87.904 222.903C102.268 208.539 122.921 204.299 140.998 210.181C141.74 210.423 142.456 209.258 141.904 208.706V208.706C121.524 188.326 121.524 155.283 141.904 134.903V134.903C145.484 131.323 143.691 120.41 139.159 118.153C134.236 115.702 129.62 112.426 125.517 108.323C105.137 87.9425 105.137 54.8996 125.517 34.5193C145.898 14.1391 178.94 14.1391 199.321 34.5193C219.701 54.8996 219.701 87.9425 199.321 108.323Z" fill="#FF6EFD"/>
<path d="M215.707 134.903L212.879 137.731L212.879 137.731L215.707 134.903ZM215.707 208.706L218.536 211.534L218.536 211.534L215.707 208.706ZM87.904 296.706L85.0756 299.534L85.0756 299.534L87.904 296.706ZM87.904 222.903L85.0756 220.074L85.0756 220.074L87.904 222.903ZM125.517 108.323L122.689 111.151L122.689 111.151L125.517 108.323ZM199.321 34.5193L196.492 37.3478L196.492 37.3478L199.321 34.5193ZM141.904 134.903L139.076 132.074L139.076 132.074L141.904 134.903ZM139.159 118.153L140.942 114.573L139.159 118.153ZM140.998 210.181L142.236 206.378L140.998 210.181ZM141.904 208.706L144.732 205.878L144.732 205.878L141.904 208.706ZM162.614 221.427L161.376 225.231L162.614 221.427ZM161.707 222.903L158.879 225.731L158.879 225.731L161.707 222.903ZM199.321 108.323L202.149 111.151L202.149 111.151L199.321 108.323ZM202.066 125.072L203.849 121.491L202.066 125.072ZM218.536 132.074C214.123 127.662 209.153 124.132 203.849 121.491L200.283 128.653C204.824 130.914 209.086 133.938 212.879 137.731L218.536 132.074ZM218.536 211.534C240.478 189.592 240.478 154.017 218.536 132.074L212.879 137.731C231.697 156.549 231.697 187.059 212.879 205.878L218.536 211.534ZM161.376 225.231C180.828 231.561 203.067 227.003 218.536 211.534L212.879 205.878C199.62 219.136 180.553 223.059 163.851 217.624L161.376 225.231ZM158.879 225.731C177.697 244.549 177.697 275.059 158.879 293.878L164.536 299.534C186.478 277.592 186.478 242.016 164.536 220.074L158.879 225.731ZM158.879 293.878C140.061 312.696 109.551 312.696 90.7325 293.878L85.0756 299.534C107.018 321.477 142.593 321.477 164.536 299.534L158.879 293.878ZM90.7325 293.878C71.9143 275.059 71.9143 244.549 90.7325 225.731L85.0756 220.074C63.1333 242.016 63.1333 277.592 85.0756 299.534L90.7325 293.878ZM90.7325 225.731C103.991 212.473 123.058 208.55 139.76 213.985L142.236 206.378C122.783 200.048 100.544 204.606 85.0756 220.074L90.7325 225.731ZM139.076 132.074C117.133 154.017 117.133 189.592 139.076 211.534L144.732 205.878C125.914 187.059 125.914 156.549 144.732 137.731L139.076 132.074ZM122.689 111.151C127.101 115.563 132.071 119.093 137.376 121.734L140.942 114.573C136.401 112.312 132.139 109.288 128.346 105.494L122.689 111.151ZM122.689 31.6909C100.747 53.6332 100.747 89.2088 122.689 111.151L128.346 105.494C109.528 86.6761 109.528 56.1659 128.346 37.3478L122.689 31.6909ZM202.149 31.6909C180.207 9.74858 144.631 9.74857 122.689 31.6909L128.346 37.3478C147.164 18.5296 177.674 18.5296 196.492 37.3478L202.149 31.6909ZM202.149 111.151C224.091 89.2088 224.091 53.6332 202.149 31.6909L196.492 37.3478C215.31 56.1659 215.31 86.6761 196.492 105.494L202.149 111.151ZM144.732 137.731C146.433 136.031 147.226 133.771 147.567 131.761C147.917 129.691 147.863 127.47 147.521 125.384C147.178 123.298 146.52 121.176 145.527 119.327C144.563 117.531 143.092 115.643 140.942 114.573L137.376 121.734C137.491 121.792 137.944 122.115 138.479 123.111C138.985 124.054 139.401 125.307 139.626 126.679C139.851 128.051 139.857 129.371 139.679 130.425C139.49 131.537 139.165 131.985 139.076 132.074L144.732 137.731ZM139.76 213.985C142.618 214.915 144.643 212.976 145.344 211.835C146.045 210.695 146.861 208.007 144.732 205.878L139.076 211.534C137.498 209.957 138.233 208.128 138.528 207.647C138.824 207.166 140.12 205.689 142.236 206.378L139.76 213.985ZM163.851 217.624C160.993 216.694 158.968 218.633 158.267 219.773C157.566 220.914 156.75 223.602 158.879 225.731L164.536 220.074C166.113 221.651 165.378 223.481 165.083 223.961C164.788 224.442 163.491 225.92 161.376 225.231L163.851 217.624ZM196.492 105.494C194.792 107.195 193.999 109.454 193.658 111.465C193.308 113.534 193.362 115.756 193.704 117.841C194.046 119.927 194.704 122.049 195.697 123.898C196.661 125.695 198.133 127.582 200.283 128.653L203.849 121.491C203.733 121.434 203.28 121.111 202.746 120.115C202.239 119.171 201.823 117.918 201.598 116.546C201.373 115.174 201.367 113.855 201.546 112.801C201.734 111.688 202.06 111.241 202.149 111.151L196.492 105.494Z" fill="white" mask="url(#path-1-inside-1_253_7)"/>
<path d="M157.738 63.2852C158.081 62.7064 158.919 62.7064 159.262 63.2852L162.771 69.2028C162.969 69.5372 163.362 69.7033 163.74 69.6124L175.202 66.8552C176.186 66.6183 176.734 67.9521 175.867 68.4752L171.949 70.8383C171.215 71.2815 171.476 72.406 172.331 72.4796L179.742 73.1173C180.822 73.2102 180.822 74.7898 179.742 74.8827L172.331 75.5204C171.476 75.594 171.215 76.7185 171.949 77.1617L175.867 79.5248C176.734 80.0479 176.186 81.3817 175.202 81.1448L163.74 78.3876C163.362 78.2967 162.969 78.4628 162.771 78.7972L159.262 84.7148C158.919 85.2936 158.081 85.2936 157.738 84.7148L154.229 78.7972C154.031 78.4628 153.638 78.2967 153.26 78.3876L141.798 81.1448C140.814 81.3817 140.266 80.0479 141.133 79.5248L145.051 77.1617C145.785 76.7185 145.524 75.594 144.669 75.5204L137.258 74.8827C136.178 74.7898 136.178 73.2102 137.258 73.1173L144.669 72.4796C145.524 72.406 145.785 71.2815 145.051 70.8383L141.133 68.4752C140.266 67.9521 140.814 66.6183 141.798 66.8552L153.26 69.6124C153.638 69.7033 154.031 69.5372 154.229 69.2028L157.738 63.2852Z" fill="white"/>
<path d="M178.738 161.285C179.081 160.706 179.919 160.706 180.262 161.285L183.771 167.203C183.969 167.537 184.362 167.703 184.74 167.612L196.202 164.855C197.186 164.618 197.734 165.952 196.867 166.475L192.949 168.838C192.215 169.282 192.476 170.406 193.331 170.48L200.742 171.117C201.822 171.21 201.822 172.79 200.742 172.883L193.331 173.52C192.476 173.594 192.215 174.718 192.949 175.162L196.867 177.525C197.734 178.048 197.186 179.382 196.202 179.145L184.74 176.388C184.362 176.297 183.969 176.463 183.771 176.797L180.262 182.715C179.919 183.294 179.081 183.294 178.738 182.715L175.229 176.797C175.031 176.463 174.638 176.297 174.26 176.388L162.798 179.145C161.814 179.382 161.266 178.048 162.133 177.525L166.051 175.162C166.785 174.718 166.524 173.594 165.669 173.52L158.258 172.883C157.178 172.79 157.178 171.21 158.258 171.117L165.669 170.48C166.524 170.406 166.785 169.282 166.051 168.838L162.133 166.475C161.266 165.952 161.814 164.618 162.798 164.855L174.26 167.612C174.638 167.703 175.031 167.537 175.229 167.203L178.738 161.285Z" fill="white"/>
<path d="M125.738 252.285C126.081 251.706 126.919 251.706 127.262 252.285L130.771 258.203C130.969 258.537 131.362 258.703 131.74 258.612L143.202 255.855C144.186 255.618 144.734 256.952 143.867 257.475L139.949 259.838C139.215 260.282 139.476 261.406 140.331 261.48L147.742 262.117C148.822 262.21 148.822 263.79 147.742 263.883L140.331 264.52C139.476 264.594 139.215 265.718 139.949 266.162L143.867 268.525C144.734 269.048 144.186 270.382 143.202 270.145L131.74 267.388C131.362 267.297 130.969 267.463 130.771 267.797L127.262 273.715C126.919 274.294 126.081 274.294 125.738 273.715L122.229 267.797C122.031 267.463 121.638 267.297 121.26 267.388L109.798 270.145C108.814 270.382 108.266 269.048 109.133 268.525L113.051 266.162C113.785 265.718 113.524 264.594 112.669 264.52L105.258 263.883C104.178 263.79 104.178 262.21 105.258 262.117L112.669 261.48C113.524 261.406 113.785 260.282 113.051 259.838L109.133 257.475C108.266 256.952 108.814 255.618 109.798 255.855L121.26 258.612C121.638 258.703 122.031 258.537 122.229 258.203L125.738 252.285Z" fill="white"/>
</svg>
