<svg width="248" height="248" viewBox="0 0 248 248" fill="none" xmlns="http://www.w3.org/2000/svg">
<circle cx="124" cy="124" r="122" fill="#FED700" stroke="white" stroke-width="4"/>
<path d="M132.05 115.736C131.486 107.894 125.309 90.8544 105.123 85.4263C79.89 78.6412 43.7662 96.6604 55.5503 137.84" stroke="#1C39FF" stroke-width="3"/>
<path d="M97.5552 138.818C94.0266 134.625 83.5661 127.538 69.9538 132.739C52.9384 139.24 39.9316 164.195 63.4384 182.607" stroke="#1C39FF" stroke-width="3"/>
<path d="M191.223 176.743C195.204 173.394 201.931 163.464 196.994 150.542C190.823 134.39 167.133 122.043 149.655 144.357" stroke="#1C39FF" stroke-width="3"/>
<path d="M121.781 160.555C121.35 157.355 118.385 150.528 109.973 148.817C99.4575 146.679 85.11 154.984 90.9884 171.562" stroke="#1C39FF" stroke-width="3"/>
<path d="M173.27 120.721C175.118 118.074 177.555 111.041 172.521 104.088C166.227 95.3972 150.044 91.801 143.151 107.984" stroke="#1C39FF" stroke-width="3"/>
<path d="M110.126 66.1079C108.868 63.4203 104.39 58.2481 96.542 59.0605C86.7319 60.076 76.4322 71.3048 86.146 84.2285" stroke="#1C39FF" stroke-width="3"/>
<path d="M47.4154 131.884C44.4722 131.505 37.7059 132.514 34.1861 139.576C29.7863 148.402 33.7472 163.116 49.8641 161.84" stroke="#1C39FF" stroke-width="3"/>
<path d="M201.269 148.322C204.235 148.402 210.865 146.717 213.656 139.338C217.145 130.113 211.723 115.873 195.817 118.765" stroke="#1C39FF" stroke-width="3"/>
<path d="M49.6993 109.794C48.1035 108.189 43.5563 105.632 38.1334 108.238C31.3549 111.497 26.8585 122.211 37.1623 128.981" stroke="#1C39FF" stroke-width="3"/>
<path d="M201.22 170.53C202.969 171.966 207.75 174.052 212.883 170.913C219.299 166.989 222.694 155.876 211.761 150.177" stroke="#1C39FF" stroke-width="3"/>
<path d="M108.249 193.083C100.341 198.442 81.31 202.988 68.4438 178.292" stroke="#1C39FF" stroke-width="3"/>
<path d="M186.173 132.388C191.033 125.119 197.249 105.944 183.237 87.3928C167.669 66.7812 131.164 57.4946 110.755 86.7204" stroke="#1C39FF" stroke-width="3"/>
<circle cx="70.3197" cy="47.379" r="10.9682" fill="#FED700" stroke="#FED700" stroke-width="3"/>
<path d="M73.8117 62.4182C81.2486 62.4182 87.2773 55.5906 87.2773 47.1683C87.2773 38.7461 81.2486 31.9185 73.8117 31.9185" stroke="#FED700" stroke-width="3"/>
<path d="M194.175 41.5688L190.389 75.8869C190.263 77.0347 188.941 77.6149 188.01 76.9314L160.183 56.4936C159.252 55.8101 159.411 54.3754 160.468 53.9112L192.081 40.0309C193.139 39.5667 194.302 40.4211 194.175 41.5688Z" fill="#FED700" stroke="#1C39FF" stroke-width="3"/>
<path d="M195.501 33.1864L152.112 51.6393" stroke="#1C39FF" stroke-width="4"/>
<mask id="path-18-inside-1_165_426" fill="white">
<rect x="121" y="202.054" width="55" height="17" rx="2" transform="rotate(-20.2696 121 202.054)"/>
</mask>
<rect x="121" y="202.054" width="55" height="17" rx="2" transform="rotate(-20.2696 121 202.054)" fill="#FED700" stroke="#FED700" stroke-width="6" mask="url(#path-18-inside-1_165_426)"/>
</svg>
