<svg width="444" height="143" viewBox="0 0 444 143" fill="none" xmlns="http://www.w3.org/2000/svg">
<line x1="2.18557e-07" y1="78.5" x2="444" y2="78.5" stroke="white" stroke-width="5"/>
<path d="M39 142L72.9386 31.212C75.8267 21.784 89.1733 21.784 92.0614 31.212L116.439 110.788C119.327 120.216 132.673 120.216 135.561 110.788L159.939 31.212C162.827 21.784 176.173 21.784 179.061 31.212L203.439 110.788C206.327 120.216 219.673 120.216 222.561 110.788L246.939 31.212C249.827 21.784 263.173 21.784 266.061 31.212L290.439 110.788C293.327 120.216 306.673 120.216 309.561 110.788L333.939 31.212C336.827 21.784 350.173 21.784 353.061 31.212L387 142" stroke="white" stroke-width="5"/>
</svg>
