<svg width="155" height="155" viewBox="0 0 155 155" fill="none" xmlns="http://www.w3.org/2000/svg">
<circle cx="77.5" cy="77.5" r="75.9375" fill="#8381FF" stroke="white" stroke-width="3.125"/>
<mask id="path-2-inside-1_142_46" fill="white">
<path fill-rule="evenodd" clip-rule="evenodd" d="M78.832 68.7323C78.3466 67.9226 77.1732 67.9226 76.6878 68.7323L67.8159 83.5309C67.5356 83.9984 66.9847 84.2304 66.4545 84.1042L35.3071 76.6933C33.9154 76.3622 33.1488 78.2498 34.3772 78.9828L49.2819 87.876C50.3247 88.4982 49.9574 90.0919 48.7474 90.1949L21.144 92.5442C19.6187 92.674 19.6187 94.9054 21.144 95.0352L48.7474 97.3845C49.9574 97.4875 50.3247 99.0812 49.2819 99.7035L34.3772 108.597C33.1488 109.33 33.9154 111.217 35.3071 110.886L66.4545 103.475C66.9847 103.349 67.5356 103.581 67.8159 104.049L76.6878 118.847C77.1732 119.657 78.3466 119.657 78.832 118.847L87.7039 104.049C87.9842 103.581 88.5351 103.349 89.0653 103.475L120.213 110.886C121.604 111.217 122.371 109.33 121.143 108.597L106.238 99.7035C105.195 99.0812 105.562 97.4875 106.772 97.3845L134.376 95.0352C135.901 94.9054 135.901 92.674 134.376 92.5442L106.772 90.1949C105.562 90.0919 105.195 88.4982 106.238 87.876L121.143 78.9828C122.371 78.2498 121.604 76.3622 120.213 76.6933L89.0653 84.1042C88.5351 84.2304 87.9842 83.9984 87.7039 83.5309L78.832 68.7323ZM78.8139 83.9361C78.3225 83.166 77.1978 83.166 76.7064 83.9361L73.4809 88.9912C73.198 89.4346 72.6677 89.6535 72.1544 89.5387L63.1035 87.5154C61.698 87.2012 60.9633 89.1214 62.2196 89.8256L62.7078 90.0993C63.785 90.7033 63.4272 92.3373 62.1961 92.4357L60.8422 92.544C59.3084 92.6666 59.3084 94.9134 60.8422 95.036L62.1961 95.1443C63.4272 95.2427 63.785 96.8767 62.7078 97.4807L62.2196 97.7544C60.9633 98.4586 61.698 100.379 63.1035 100.065L72.1544 98.0413C72.6677 97.9265 73.198 98.1454 73.4809 98.5888L76.7064 103.644C77.1978 104.414 78.3225 104.414 78.8139 103.644L82.0394 98.5888C82.3223 98.1454 82.8526 97.9265 83.3659 98.0413L92.4168 100.065C93.8223 100.379 94.557 98.4586 93.3008 97.7544L92.8125 97.4807C91.7353 96.8768 92.0931 95.2427 93.3242 95.1443L94.6781 95.036C96.2119 94.9134 96.2119 92.6666 94.6781 92.544L93.3242 92.4357C92.0931 92.3373 91.7353 90.7033 92.8125 90.0993L93.3008 89.8256C94.557 89.1214 93.8223 87.2012 92.4168 87.5154L83.3659 89.5387C82.8526 89.6535 82.3223 89.4346 82.0394 88.9912L78.8139 83.9361Z"/>
</mask>
<path fill-rule="evenodd" clip-rule="evenodd" d="M78.832 68.7323C78.3466 67.9226 77.1732 67.9226 76.6878 68.7323L67.8159 83.5309C67.5356 83.9984 66.9847 84.2304 66.4545 84.1042L35.3071 76.6933C33.9154 76.3622 33.1488 78.2498 34.3772 78.9828L49.2819 87.876C50.3247 88.4982 49.9574 90.0919 48.7474 90.1949L21.144 92.5442C19.6187 92.674 19.6187 94.9054 21.144 95.0352L48.7474 97.3845C49.9574 97.4875 50.3247 99.0812 49.2819 99.7035L34.3772 108.597C33.1488 109.33 33.9154 111.217 35.3071 110.886L66.4545 103.475C66.9847 103.349 67.5356 103.581 67.8159 104.049L76.6878 118.847C77.1732 119.657 78.3466 119.657 78.832 118.847L87.7039 104.049C87.9842 103.581 88.5351 103.349 89.0653 103.475L120.213 110.886C121.604 111.217 122.371 109.33 121.143 108.597L106.238 99.7035C105.195 99.0812 105.562 97.4875 106.772 97.3845L134.376 95.0352C135.901 94.9054 135.901 92.674 134.376 92.5442L106.772 90.1949C105.562 90.0919 105.195 88.4982 106.238 87.876L121.143 78.9828C122.371 78.2498 121.604 76.3622 120.213 76.6933L89.0653 84.1042C88.5351 84.2304 87.9842 83.9984 87.7039 83.5309L78.832 68.7323ZM78.8139 83.9361C78.3225 83.166 77.1978 83.166 76.7064 83.9361L73.4809 88.9912C73.198 89.4346 72.6677 89.6535 72.1544 89.5387L63.1035 87.5154C61.698 87.2012 60.9633 89.1214 62.2196 89.8256L62.7078 90.0993C63.785 90.7033 63.4272 92.3373 62.1961 92.4357L60.8422 92.544C59.3084 92.6666 59.3084 94.9134 60.8422 95.036L62.1961 95.1443C63.4272 95.2427 63.785 96.8767 62.7078 97.4807L62.2196 97.7544C60.9633 98.4586 61.698 100.379 63.1035 100.065L72.1544 98.0413C72.6677 97.9265 73.198 98.1454 73.4809 98.5888L76.7064 103.644C77.1978 104.414 78.3225 104.414 78.8139 103.644L82.0394 98.5888C82.3223 98.1454 82.8526 97.9265 83.3659 98.0413L92.4168 100.065C93.8223 100.379 94.557 98.4586 93.3008 97.7544L92.8125 97.4807C91.7353 96.8768 92.0931 95.2427 93.3242 95.1443L94.6781 95.036C96.2119 94.9134 96.2119 92.6666 94.6781 92.544L93.3242 92.4357C92.0931 92.3373 91.7353 90.7033 92.8125 90.0993L93.3008 89.8256C94.557 89.1214 93.8223 87.2012 92.4168 87.5154L83.3659 89.5387C82.8526 89.6535 82.3223 89.4346 82.0394 88.9912L78.8139 83.9361Z" fill="white"/>
<path d="M76.6878 68.7323L77.2239 69.0536L77.2239 69.0536L76.6878 68.7323ZM78.832 68.7323L78.296 69.0536L78.296 69.0536L78.832 68.7323ZM67.8159 83.5309L67.2799 83.2095L67.2799 83.2095L67.8159 83.5309ZM66.4545 84.1042L66.5991 83.4962L66.5991 83.4962L66.4545 84.1042ZM35.3071 76.6933L35.4517 76.0853L35.4517 76.0853L35.3071 76.6933ZM34.3772 78.9828L34.6975 78.4461L34.6975 78.4461L34.3772 78.9828ZM49.2819 87.876L49.6021 87.3393L49.6021 87.3393L49.2819 87.876ZM48.7474 90.1949L48.8004 90.8177L48.8004 90.8177L48.7474 90.1949ZM21.144 92.5442L21.091 91.9215L21.091 91.9215L21.144 92.5442ZM21.144 95.0352L21.091 95.658L21.091 95.658L21.144 95.0352ZM48.7474 97.3845L48.8004 96.7618L48.8004 96.7618L48.7474 97.3845ZM49.2819 99.7035L48.9616 99.1667L48.9616 99.1667L49.2819 99.7035ZM34.3772 108.597L34.6975 109.133L34.6975 109.133L34.3772 108.597ZM35.3071 110.886L35.4517 111.494L35.4517 111.494L35.3071 110.886ZM66.4545 103.475L66.5991 104.083L66.5991 104.083L66.4545 103.475ZM67.8159 104.049L67.2799 104.37L67.2799 104.37L67.8159 104.049ZM76.6878 118.847L77.2239 118.526L77.2239 118.526L76.6878 118.847ZM78.832 118.847L78.296 118.526L78.296 118.526L78.832 118.847ZM87.7039 104.049L87.1679 103.727L87.1679 103.727L87.7039 104.049ZM89.0653 103.475L88.9207 104.083L88.9207 104.083L89.0653 103.475ZM120.213 110.886L120.068 111.494L120.068 111.494L120.213 110.886ZM121.143 108.597L120.822 109.133L120.822 109.133L121.143 108.597ZM106.238 99.7035L106.558 99.1667L106.558 99.1667L106.238 99.7035ZM106.772 97.3845L106.719 96.7618L106.719 96.7618L106.772 97.3845ZM134.376 95.0352L134.429 95.658L134.376 95.0352ZM134.376 92.5442L134.429 91.9215L134.429 91.9215L134.376 92.5442ZM106.772 90.1949L106.719 90.8177L106.719 90.8177L106.772 90.1949ZM106.238 87.876L106.558 88.4127L106.558 88.4127L106.238 87.876ZM121.143 78.9828L120.822 78.4461L120.822 78.4461L121.143 78.9828ZM120.213 76.6933L120.357 77.3014L120.357 77.3014L120.213 76.6933ZM89.0653 84.1042L88.9207 83.4962L88.9207 83.4962L89.0653 84.1042ZM87.7039 83.5309L88.24 83.2095L88.24 83.2095L87.7039 83.5309ZM76.7064 83.9361L77.2333 84.2723L77.2333 84.2723L76.7064 83.9361ZM78.8139 83.9361L79.3408 83.6L79.3408 83.6L78.8139 83.9361ZM73.4809 88.9912L74.0078 89.3274L74.0078 89.3274L73.4809 88.9912ZM72.1544 89.5387L72.2908 88.9288L72.2908 88.9288L72.1544 89.5387ZM63.1035 87.5154L62.9672 88.1253L62.9672 88.1253L63.1035 87.5154ZM62.2196 89.8256L61.9139 90.3708L61.9139 90.3708L62.2196 89.8256ZM62.7078 90.0993L63.0134 89.5542L63.0134 89.5542L62.7078 90.0993ZM62.1961 92.4357L62.1463 91.8127L62.1463 91.8127L62.1961 92.4357ZM60.8422 92.544L60.892 93.167L60.892 93.167L60.8422 92.544ZM60.8422 95.036L60.7924 95.659L60.7924 95.659L60.8422 95.036ZM62.1961 95.1443L62.246 94.5213L62.246 94.5213L62.1961 95.1443ZM62.7078 97.4807L62.4021 96.9355L62.4021 96.9355L62.7078 97.4807ZM62.2196 97.7544L62.5252 98.2995L62.5252 98.2995L62.2196 97.7544ZM63.1035 100.065L63.2399 100.675L63.2399 100.675L63.1035 100.065ZM72.1544 98.0413L72.2908 98.6512L72.2908 98.6512L72.1544 98.0413ZM73.4809 98.5888L74.0078 98.2526L74.0078 98.2526L73.4809 98.5888ZM76.7064 103.644L77.2333 103.308L77.2333 103.308L76.7064 103.644ZM78.8139 103.644L79.3408 103.98L79.3408 103.98L78.8139 103.644ZM82.0394 98.5888L81.5125 98.2526L81.5125 98.2526L82.0394 98.5888ZM83.3659 98.0413L83.2295 98.6512L83.2295 98.6512L83.3659 98.0413ZM92.4168 100.065L92.5531 99.4547L92.5531 99.4547L92.4168 100.065ZM93.3008 97.7544L92.9951 98.2995L92.9951 98.2995L93.3008 97.7544ZM92.8125 97.4807L93.1182 96.9355L93.1182 96.9355L92.8125 97.4807ZM93.3242 95.1443L93.2743 94.5213L93.2743 94.5213L93.3242 95.1443ZM94.6781 95.036L94.7279 95.659L94.728 95.659L94.6781 95.036ZM94.6781 92.544L94.6283 93.167L94.6283 93.167L94.6781 92.544ZM93.3242 92.4357L93.374 91.8127L93.374 91.8127L93.3242 92.4357ZM92.8125 90.0993L93.1182 90.6445L93.1182 90.6445L92.8125 90.0993ZM93.3008 89.8256L92.9951 89.2805L92.9951 89.2805L93.3008 89.8256ZM92.4168 87.5154L92.5531 88.1253L92.5531 88.1253L92.4168 87.5154ZM83.3659 89.5387L83.5022 90.1487L83.5022 90.1487L83.3659 89.5387ZM82.0394 88.9912L82.5663 88.655L82.5663 88.655L82.0394 88.9912ZM77.2239 69.0536C77.4666 68.6488 78.0533 68.6488 78.296 69.0536L79.3681 68.4109C78.6399 67.1964 76.8799 67.1964 76.1518 68.4109L77.2239 69.0536ZM68.352 83.8522L77.2239 69.0536L76.1518 68.4109L67.2799 83.2095L68.352 83.8522ZM66.3098 84.7122C67.1052 84.9015 67.9316 84.5535 68.352 83.8522L67.2799 83.2095C67.1397 83.4433 66.8643 83.5593 66.5991 83.4962L66.3098 84.7122ZM35.1624 77.3014L66.3098 84.7122L66.5991 83.4962L35.4517 76.0853L35.1624 77.3014ZM34.6975 78.4461C34.0833 78.0796 34.4666 77.1358 35.1624 77.3014L35.4517 76.0853C33.3642 75.5886 32.2143 78.4201 34.057 79.5196L34.6975 78.4461ZM49.6021 87.3393L34.6975 78.4461L34.057 79.5195L48.9616 88.4127L49.6021 87.3393ZM48.8004 90.8177C50.6154 90.6632 51.1664 88.2726 49.6021 87.3393L48.9616 88.4127C49.4831 88.7238 49.2994 89.5207 48.6944 89.5722L48.8004 90.8177ZM21.197 93.167L48.8004 90.8177L48.6944 89.5722L21.091 91.9215L21.197 93.167ZM21.197 94.4125C20.4343 94.3476 20.4344 93.2319 21.197 93.167L21.091 91.9215C18.803 92.1162 18.803 95.4632 21.091 95.658L21.197 94.4125ZM48.8004 96.7618L21.197 94.4125L21.091 95.658L48.6944 98.0073L48.8004 96.7618ZM49.6021 100.24C51.1664 99.3068 50.6154 96.9163 48.8004 96.7618L48.6944 98.0073C49.2994 98.0588 49.4831 98.8556 48.9616 99.1667L49.6021 100.24ZM34.6975 109.133L49.6021 100.24L48.9616 99.1667L34.057 108.06L34.6975 109.133ZM35.1624 110.278C34.4666 110.444 34.0833 109.5 34.6975 109.133L34.057 108.06C32.2143 109.159 33.3642 111.991 35.4517 111.494L35.1624 110.278ZM66.3098 102.867L35.1624 110.278L35.4517 111.494L66.5991 104.083L66.3098 102.867ZM68.352 103.727C67.9316 103.026 67.1052 102.678 66.3098 102.867L66.5991 104.083C66.8643 104.02 67.1397 104.136 67.2799 104.37L68.352 103.727ZM77.2239 118.526L68.352 103.727L67.2799 104.37L76.1518 119.169L77.2239 118.526ZM78.296 118.526C78.0533 118.931 77.4666 118.931 77.2239 118.526L76.1518 119.169C76.8799 120.383 78.6399 120.383 79.3681 119.169L78.296 118.526ZM87.1679 103.727L78.296 118.526L79.3681 119.169L88.24 104.37L87.1679 103.727ZM89.21 102.867C88.4146 102.678 87.5883 103.026 87.1679 103.727L88.24 104.37C88.3801 104.136 88.6555 104.02 88.9207 104.083L89.21 102.867ZM120.357 110.278L89.21 102.867L88.9207 104.083L120.068 111.494L120.357 110.278ZM120.822 109.133C121.437 109.5 121.053 110.444 120.357 110.278L120.068 111.494C122.156 111.991 123.306 109.159 121.463 108.06L120.822 109.133ZM105.918 100.24L120.822 109.133L121.463 108.06L106.558 99.1667L105.918 100.24ZM106.719 96.7618C104.904 96.9163 104.353 99.3068 105.918 100.24L106.558 99.1667C106.037 98.8556 106.22 98.0588 106.825 98.0073L106.719 96.7618ZM134.323 94.4125L106.719 96.7618L106.825 98.0073L134.429 95.658L134.323 94.4125ZM134.323 93.167C135.086 93.2319 135.085 94.3476 134.323 94.4125L134.429 95.658C136.717 95.4632 136.717 92.1162 134.429 91.9215L134.323 93.167ZM106.719 90.8177L134.323 93.167L134.429 91.9215L106.825 89.5722L106.719 90.8177ZM105.918 87.3393C104.353 88.2726 104.904 90.6632 106.719 90.8177L106.825 89.5722C106.22 89.5207 106.037 88.7238 106.558 88.4127L105.918 87.3393ZM120.822 78.4461L105.918 87.3393L106.558 88.4127L121.463 79.5195L120.822 78.4461ZM120.357 77.3014C121.053 77.1358 121.437 78.0796 120.822 78.4461L121.463 79.5195C123.306 78.4201 122.156 75.5886 120.068 76.0853L120.357 77.3014ZM89.21 84.7122L120.357 77.3014L120.068 76.0853L88.9207 83.4962L89.21 84.7122ZM87.1679 83.8522C87.5883 84.5535 88.4146 84.9015 89.21 84.7122L88.9207 83.4962C88.6555 83.5593 88.3801 83.4433 88.24 83.2095L87.1679 83.8522ZM78.296 69.0536L87.1679 83.8522L88.24 83.2095L79.3681 68.4109L78.296 69.0536ZM77.2333 84.2723C77.479 83.8873 78.0413 83.8873 78.287 84.2723L79.3408 83.6C78.6037 82.4447 76.9166 82.4447 76.1795 83.6L77.2333 84.2723ZM74.0078 89.3274L77.2333 84.2723L76.1795 83.6L72.954 88.655L74.0078 89.3274ZM72.0181 90.1487C72.788 90.3208 73.5834 89.9925 74.0078 89.3274L72.954 88.655C72.8126 88.8767 72.5474 88.9861 72.2908 88.9288L72.0181 90.1487ZM62.9672 88.1253L72.0181 90.1487L72.2908 88.9288L63.2399 86.9055L62.9672 88.1253ZM62.5252 89.2805C61.897 88.9283 62.2644 87.9682 62.9672 88.1253L63.2399 86.9055C61.1316 86.4341 60.0295 89.3144 61.9139 90.3708L62.5252 89.2805ZM63.0134 89.5542L62.5252 89.2805L61.9139 90.3708L62.4021 90.6445L63.0134 89.5542ZM62.246 93.0587C64.0926 92.9111 64.6293 90.46 63.0134 89.5542L62.4021 90.6445C62.9408 90.9465 62.7619 91.7635 62.1463 91.8127L62.246 93.0587ZM60.892 93.167L62.246 93.0587L62.1463 91.8127L60.7924 91.921L60.892 93.167ZM60.892 94.413C60.1251 94.3517 60.1251 93.2283 60.892 93.167L60.7924 91.921C58.4916 92.1049 58.4916 95.4751 60.7924 95.659L60.892 94.413ZM62.246 94.5213L60.892 94.413L60.7924 95.659L62.1463 95.7673L62.246 94.5213ZM63.0134 98.0258C64.6293 97.12 64.0925 94.6689 62.246 94.5213L62.1463 95.7673C62.7619 95.8165 62.9408 96.6335 62.4021 96.9355L63.0134 98.0258ZM62.5252 98.2995L63.0134 98.0258L62.4021 96.9355L61.9139 97.2092L62.5252 98.2995ZM62.9672 99.4547C62.2644 99.6118 61.897 98.6517 62.5252 98.2995L61.9139 97.2092C60.0295 98.2656 61.1316 101.146 63.2399 100.675L62.9672 99.4547ZM72.0181 97.4313L62.9672 99.4547L63.2399 100.675L72.2908 98.6512L72.0181 97.4313ZM74.0078 98.2526C73.5834 97.5875 72.788 97.2592 72.0181 97.4313L72.2908 98.6512C72.5474 98.5939 72.8126 98.7033 72.954 98.925L74.0078 98.2526ZM77.2333 103.308L74.0078 98.2526L72.954 98.925L76.1795 103.98L77.2333 103.308ZM78.287 103.308C78.0413 103.693 77.479 103.693 77.2333 103.308L76.1795 103.98C76.9166 105.135 78.6037 105.135 79.3408 103.98L78.287 103.308ZM81.5125 98.2526L78.287 103.308L79.3408 103.98L82.5663 98.925L81.5125 98.2526ZM83.5022 97.4313C82.7323 97.2592 81.9369 97.5875 81.5125 98.2526L82.5663 98.925C82.7078 98.7033 82.9729 98.5939 83.2295 98.6512L83.5022 97.4313ZM92.5531 99.4547L83.5022 97.4313L83.2295 98.6512L92.2804 100.675L92.5531 99.4547ZM92.9951 98.2995C93.6233 98.6517 93.2559 99.6118 92.5531 99.4547L92.2804 100.675C94.3887 101.146 95.4908 98.2656 93.6064 97.2092L92.9951 98.2995ZM92.5069 98.0258L92.9951 98.2995L93.6064 97.2092L93.1182 96.9355L92.5069 98.0258ZM93.2743 94.5213C91.4278 94.6689 90.891 97.12 92.5069 98.0258L93.1182 96.9355C92.5795 96.6335 92.7585 95.8165 93.374 95.7673L93.2743 94.5213ZM94.6283 94.413L93.2743 94.5213L93.374 95.7673L94.7279 95.659L94.6283 94.413ZM94.6283 93.167C95.3952 93.2283 95.3952 94.3517 94.6283 94.413L94.728 95.659C97.0287 95.4751 97.0287 92.1049 94.728 91.921L94.6283 93.167ZM93.2743 93.0587L94.6283 93.167L94.728 91.921L93.374 91.8127L93.2743 93.0587ZM92.5069 89.5542C90.891 90.46 91.4278 92.9111 93.2743 93.0587L93.374 91.8127C92.7585 91.7635 92.5795 90.9465 93.1182 90.6445L92.5069 89.5542ZM92.9951 89.2805L92.5069 89.5542L93.1182 90.6445L93.6064 90.3708L92.9951 89.2805ZM92.5531 88.1253C93.2559 87.9682 93.6233 88.9283 92.9951 89.2805L93.6064 90.3708C95.4908 89.3144 94.3887 86.4341 92.2804 86.9055L92.5531 88.1253ZM83.5022 90.1487L92.5531 88.1253L92.2804 86.9055L83.2295 88.9288L83.5022 90.1487ZM81.5125 89.3274C81.9369 89.9925 82.7323 90.3208 83.5022 90.1487L83.2295 88.9288C82.9729 88.9861 82.7078 88.8767 82.5663 88.655L81.5125 89.3274ZM78.287 84.2723L81.5125 89.3274L82.5663 88.655L79.3408 83.6L78.287 84.2723Z" fill="white" mask="url(#path-2-inside-1_142_46)"/>
<circle cx="92.1676" cy="39.0426" r="6.8551" stroke="white" stroke-width="1.875"/>
<circle cx="47.4801" cy="62.7926" r="6.8551" stroke="white" stroke-width="1.875"/>
<path d="M53.4375 59.375L35 41.25M47.8125 63.125L36.875 52.1875M44.375 69.0625L35.9375 61.25" stroke="white" stroke-width="1.875"/>
<path d="M98.125 42.5L105.938 34.6875M88.4375 33.4375L107.188 15.625M90.3125 40.9375L105.938 25.625" stroke="white" stroke-width="1.875"/>
<circle cx="84.6875" cy="132.188" r="7.5" stroke="white" stroke-width="1.875"/>
<path d="M97.6533 116.96C97.5628 115.187 95.673 113.843 93.4322 113.957C91.1915 114.071 89.4484 115.601 89.5389 117.374" stroke="white" stroke-width="1.875"/>
<path d="M91.4112 111.935C90.6629 111.212 89.3441 111.361 88.4656 112.27C87.5872 113.178 87.4816 114.501 88.2299 115.225" stroke="white" stroke-width="1.875"/>
<path d="M93.942 132.53C95.2223 132.655 96.5302 132.404 97.7026 131.727C100.852 129.908 101.831 125.707 99.8883 122.342C97.9458 118.978 93.8178 117.724 90.6681 119.543C89.7576 120.068 89.0285 120.793 88.499 121.639" stroke="white" stroke-width="1.875"/>
</svg>
